HIERARCHY
ROOT Hips
{
  OFFSET 57.8838 95.319 338.509
  CHANNELS 6 Xposition Yposition Zposition Zrotation Xrotation Yrotation
  JOINT LeftUpLeg
  {
    OFFSET 8.64259 1.95398 -2.38835
    CHANNELS 3 Zrotation Xrotation Yrotation
    JOINT LeftLeg
    {
      OFFSET 43.7702 0 0
      CHANNELS 3 Zrotation Xrotation Yrotation
      JOINT LeftFoot
      {
        OFFSET 40.6238 0 0
        CHANNELS 3 Zrotation Xrotation Yrotation
        JOINT LeftToeBase
        {
          OFFSET 12.7242 0 0
          CHANNELS 3 Zrotation Xrotation Yrotation
          End Site
          {
            OFFSET 0 0 0
          }
        }
      }
    }
  }
  JOINT RightUpLeg
  {
    OFFSET -8.2249 1.95398 -2.59336
    CHANNELS 3 Zrotation Xrotation Yrotation
    JOINT RightLeg
    {
      OFFSET 43.5653 0 0
      CHANNELS 3 Zrotation Xrotation Yrotation
      JOINT RightFoot
      {
        OFFSET 40.6238 0 0
        CHANNELS 3 Zrotation Xrotation Yrotation
        JOINT RightToeBase
        {
          OFFSET 12.7242 0 0
          CHANNELS 3 Zrotation Xrotation Yrotation
          End Site
          {
            OFFSET 0 0 0
          }
        }
      }
    }
  }
  JOINT Spine
  {
    OFFSET 0.165834 0.87714 6.61349
    CHANNELS 3 Zrotation Xrotation Yrotation
    JOINT Spine1
    {
      OFFSET 7.38963 1.71661e-005 0
      CHANNELS 3 Zrotation Xrotation Yrotation
      JOINT Spine2
      {
        OFFSET 11.9445 1.14441e-005 0
        CHANNELS 3 Zrotation Xrotation Yrotation
        JOINT Spine3
        {
          OFFSET 14.7254 4.19617e-005 0
          CHANNELS 3 Zrotation Xrotation Yrotation
          JOINT Spine4
          {
            OFFSET 10.9679 0 0
            CHANNELS 3 Zrotation Xrotation Yrotation
            JOINT RightShoulder
            {
              OFFSET 2.46616 -1.6653 3.69651
              CHANNELS 3 Zrotation Xrotation Yrotation
              JOINT RightArm
              {
                OFFSET 13.0012 0 0
                CHANNELS 3 Zrotation Xrotation Yrotation
                JOINT RightForeArm
                {
                  OFFSET 28.7848 1.62311e-005 0
                  CHANNELS 3 Zrotation Xrotation Yrotation
                  JOINT RightHand
                  {
                    OFFSET 26.5688 1.62095e-005 0
                    CHANNELS 3 Zrotation Xrotation Yrotation
                    End Site
                    {
                      OFFSET 0 0 0
                    }
                  }
                }
              }
            }
            JOINT LeftShoulder
            {
              OFFSET 2.38034 -1.29275 -3.7523
              CHANNELS 3 Zrotation Xrotation Yrotation
              JOINT LeftArm
              {
                OFFSET 16.3182 6.07031e-005 0
                CHANNELS 3 Zrotation Xrotation Yrotation
                JOINT LeftForeArm
                {
                  OFFSET 27.0901 0 0
                  CHANNELS 3 Zrotation Xrotation Yrotation
                  JOINT LeftHand
                  {
                    OFFSET 24.5451 1.51738e-005 0
                    CHANNELS 3 Zrotation Xrotation Yrotation
                    End Site
                    {
                      OFFSET 0 0 0
                    }
                  }
                }
              }
            }
            JOINT Neck
            {
              OFFSET 5.0226 -0.0266342 0
              CHANNELS 3 Zrotation Xrotation Yrotation
              JOINT Head
              {
                OFFSET 6.69364 2.86102e-005 0
                CHANNELS 3 Zrotation Xrotation Yrotation
                End Site
                {
                  OFFSET 0 0 0
                }
              }
            }
          }
        }
      }
    }
  }
}
MOTION
Frames:	15
Frame Time:	0.0416667
-98.6084 83.5863 70.6496 107.985 53.2438 79.1958 -176.737 -1.28618 90.024 -78.9566 7.47531 6.68383 54.9954 -3.58171 1.09848 45.5571 8.13531 11.5932 174.399 34.8853 99.9772 -55.619 -21.9368 2.39456 62.7148 -5.40314 -6.46269 29.2715 -0.716837 2.50333 -0.59005 8.69906 -91.337 9.44724 -1.77827 -2.51025 -2.2248 -1.88699 -2.4296 -24.7437 -0.942038 -2.92831 -4.73108 -0.942048 -2.92832 97.1511 -45.3626 -90.2794 24.3122 -8.14493 -2.4744 3.43191 4.93399 -30.7527 -9.19233 0.00551355 -5.48839 -82.4201 -54.6385 90.5167 -19.7975 6.63433 -7.74946 6.33698 23.7118 -47.7168 -1.43931 -0.189968 -16.386 42.0172 2.90614 2.03913 -20.6588 0.657853 6.10951 
-86.349 85.3837 58.7829 105.787 50.8985 79.8729 -176.138 20.983 86.7544 -95.5215 6.84819 5.7515 57.7865 0.628608 3.16343 44.6183 7.27897 8.45978 174.961 23.3407 101.226 -57.6369 -20.2938 1.23029 68.0032 -17.7144 -10.8881 36.3547 -9.72777 2.3016 -0.00291449 8.45952 -91.4757 9.93376 -0.675776 -2.87444 -1.74012 -0.801583 -2.84195 -24.2498 0.218927 -2.94462 -4.23711 0.218928 -2.94462 96.2319 -43.9919 -91.9632 24.6359 -24.1878 -14.0077 -3.72732 3.52206 -42.3064 -7.06801 -0.0146315 -5.29347 -81.1542 -54.2442 92.3143 -11.8555 -1.38486 -5.63414 4.63051 18.5522 -47.3091 -0.968102 -0.231913 -15.9967 39.324 3.48212 5.15299 -21.1516 -0.234981 5.65561 
-73.8078 94.3391 47.2916 107.47 52.2165 72.0063 -174.325 33.3366 77.0456 -86.3793 5.98942 3.56682 58.0894 -0.223603 0.398604 43.7907 6.99936 9.72384 176.411 5.36072 96.2991 -45.5746 -16.3392 -2.01847 67.0848 -3.64066 2.95334 32.1112 -4.41651 -0.302455 0.353635 8.10071 -90.6068 10.6855 0.424453 -1.25182 -0.985974 0.368938 -1.26928 -23.5188 0.781082 -1.06641 -3.50615 0.781074 -1.0664 96.5587 -43.7526 -91.4485 27.6004 -33.3012 -11.7259 -8.96805 9.64452 -59.9915 -4.16125 -0.017911 -5.37611 -80.6424 -49.9075 92.8283 -6.32357 -4.99771 -2.60734 1.56067 11.1515 -52.0481 3.11007 -0.556328 -14.1665 32.7377 0.0756625 6.3505 -20.8644 -3.10705 2.46638 
-62.1039 102.774 36.5187 105.123 49.2123 73.8584 -176.335 34.2222 76.2456 -66.2861 3.13451 0.904661 59.9954 -0.0337598 -1.54843 44.801 7.40422 8.74059 175.87 2.51731 92.8294 -39.2925 -18.2094 -1.28776 55.6289 13.2707 14.7237 18.7371 15.8 -7.77731 0.633162 7.85752 -90.5831 11.1632 0.989296 -1.25726 -0.508059 0.933043 -1.29959 -23.0434 1.32141 -0.901824 -3.03075 1.32142 -0.901826 96.9961 -43.1147 -90.7888 26.4014 -44.5445 -10.9097 -15.5442 15.7503 -69.4686 0.538305 -0.0456135 -6.87876 -80.0568 -47.7233 93.6182 -3.37852 -9.40533 6.70413 -1.35174 4.95452 -59.0375 7.15636 -0.877689 -13.7933 30.0379 0.388236 7.58669 -20.5507 -2.94934 1.35007 
-50.7181 105.553 26.2303 103.708 45.6736 75.3998 178.686 28.3662 77.6505 -42.8181 1.68094 -0.254634 59.6137 -1.02828 -3.83841 43.7408 6.90944 9.04052 174.643 3.64087 91.36 -28.7612 -10.9983 -0.859893 58.7058 10.2283 13.292 24.9936 6.36317 -8.95155 0.830635 8.01761 -90.5617 10.846 1.39437 -1.24767 -0.824856 1.3381 -1.30784 -23.3639 1.70485 -0.77089 -3.35123 1.70485 -0.770884 97.0644 -43.1763 -90.666 25.3068 -48.8441 -11.361 -20.9017 20.0311 -76.5086 4.77302 -0.0407171 -5.32395 -79.8067 -44.4053 93.864 -2.28339 -13.5375 13.9672 -4.64832 1.03229 -65.0007 13.3165 -1.20644 -12.4374 32.4802 1.06676 7.00187 -21.9907 -2.26284 1.45737 
-39.4805 100.8 16.0788 103.984 44.442 76.9482 174.658 26.0558 78.946 -28.1757 2.46383 0.614003 60.4029 -0.742333 -5.43631 43.6299 6.85821 9.01424 172.741 3.12524 92.0044 -27.0616 -6.69177 0.888293 61.123 5.94222 9.31666 29.0696 -0.347192 -2.88694 0.881197 8.21186 -90.7802 10.4578 1.39759 -1.67373 -1.21357 1.32257 -1.7336 -23.7499 1.83597 -1.17634 -3.73725 1.83594 -1.17634 96.9706 -43.0032 -90.8456 23.9151 -46.9182 -12.6417 -17.3829 21.3669 -83.1623 2.19675 -0.00627325 -3.73782 -79.1265 -43.8816 94.954 -0.802401 -16.6077 15.581 -4.91325 -0.147431 -70.9018 15.4436 -1.27948 -11.9184 30.3837 1.19304 7.53935 -19.7175 -2.1951 1.51074 
-27.9633 92.2532 5.82623 107.836 47.9223 76.4023 171.501 26.7588 79.7502 -20.6979 5.20212 1.98585 60.9244 -0.202711 -5.20183 44.06 7.08565 9.25977 171.583 -6.00375 98.7401 -29.5517 -7.78469 1.72622 66.4925 -17.6159 -10.2612 40.116 -15.1051 -0.667119 0.528647 8.62217 -90.9853 9.63077 0.608999 -1.99974 -2.04163 0.520384 -2.02459 -24.568 1.18177 -1.72439 -4.55538 1.18175 -1.7244 96.6819 -44.1703 -91.1877 22.1813 -44.4453 -15.1347 -22.0955 18.1281 -79.2368 -1.14032 -0.0445478 -2.37843 -78.4222 -45.0396 96.1145 -3.45125 -17.8493 11.5837 -1.60482 0.0446267 -76.0936 12.6947 -1.27088 -13.3304 29.0345 -0.0655849 5.97765 -16.2505 -2.8037 2.93438 
-14.4837 89.4498 -5.48541 100.431 47.6861 83.0983 172.803 31.0317 82.3861 -17.1563 5.83602 0.728237 61.3755 -0.97131 -3.5626 39.1939 4.56867 7.65514 172.22 -13.8488 98.5849 -30.9773 -5.26669 0.829005 68.8362 -16.9414 -1.65502 44.433 -22.3034 -4.79044 0.651838 8.02507 -90.6985 10.8283 0.975358 -1.48022 -0.843214 0.909288 -1.52171 -23.377 1.37511 -1.1187 -3.36437 1.37511 -1.1187 96.3577 -46.8662 -91.3895 25.6172 -41.3869 -11.7022 -19.1634 9.17786 -62.7924 -6.6251 -0.0730129 -4.22292 -79.224 -50.4173 94.9953 -11.0233 -14.3449 7.75507 1.49186 1.99676 -71.1415 7.66705 -0.898884 -13.5537 27.5206 -1.3711 2.23022 -15.9996 -2.61235 3.53917 
-0.0226081 87.7152 -17.9839 99.5629 44.2153 81.4347 176.98 32.5555 79.6819 -35.0209 9.78122 -0.720507 57.8943 -2.10907 5.78191 36.2659 3.17031 4.51733 168.838 -10.638 89.4327 -52.5791 -11.5699 -0.446795 59.7897 4.90105 12.3417 36.2589 -11.1019 -8.30041 0.47417 7.98616 -89.7046 10.894 1.08064 0.495546 -0.776592 1.10139 0.447499 -23.3129 0.881728 0.797414 -3.30023 0.881735 0.797417 96.7927 -48.4524 -90.5098 29.5887 -38.3489 -10.0806 -13.8264 -3.51841 -41.0659 -6.6074 -0.0134465 -5.29083 -81.0173 -54.422 92.5201 -15.9815 -9.82918 4.85557 -0.204567 4.68254 -60.1717 7.07962 -0.924026 -14.4526 33.3409 -1.86192 -1.18745 -20.5293 -1.7887 3.23413 
12.265 86.3986 -28.591 103.991 45.2434 76.5518 -178.361 27.0334 74.6779 -52.7951 12.7805 -1.07542 64.2561 9.74208 14.0782 35.8333 2.85908 -1.68294 168.79 2.29158 90.1422 -84.3295 -18.3515 -1.50236 58.1751 3.18964 1.82331 26.9312 2.76821 -3.89237 -0.218731 8.5109 -89.1426 9.84551 -0.0472162 1.69981 -1.82658 0.0276442 1.70023 -24.3532 -0.555819 1.60708 -4.34059 -0.555803 1.60708 96.8675 -48.5851 -90.3775 28.0574 -24.4816 -8.57947 -5.69184 -7.86866 -28.3606 -6.35665 -0.0843541 -4.03988 -83.1575 -55.2844 89.5152 -19.6172 -3.1455 -7.39784 2.98362 12.3677 -50.9375 2.15087 -0.536336 -15.5199 39.0534 -1.38474 -2.65545 -19.0551 -0.820532 5.15246 
23.1426 92.0007 -39.0291 104.576 46.967 78.7981 -178.41 13.074 79.4335 -47.7712 13.903 0.227477 66.8263 8.31751 6.88147 38.8732 4.14391 0.923301 168.313 18.7469 91.0418 -91.5146 -14.0996 -1.52911 62.0108 -1.78476 3.00799 31.0872 -3.18257 -6.81729 -0.63328 8.44261 -89.4928 9.99821 -1.03131 1.09176 -1.67278 -0.982238 1.13607 -24.2098 -1.31175 0.731322 -4.19714 -1.31173 0.731321 96.9987 -46.7859 -90.3661 24.3017 -11.8716 -5.51363 1.36486 -8.90695 -15.7441 -10.7956 -0.431767 -0.626025 -83.7634 -54.6672 88.5922 -19.6059 7.63172 -17.2755 7.99923 19.673 -52.9042 -2.59145 -0.0542171 -18.107 38.3326 0.256617 -1.41224 -19.4554 0.168384 4.86154 
34.0109 99.3902 -49.0631 107.341 52.8443 79.3328 -178.901 7.56947 85.7483 -45.8128 8.4422 2.67458 49.8657 -13.5198 -8.35915 17.6166 -5.16319 3.31359 168.093 23.8324 95.3747 -73.6746 -8.55705 0.499856 67.319 -6.35864 6.23618 34.108 -7.86734 -8.00708 -0.974099 8.21589 -89.9476 10.4455 -1.91635 0.273154 -1.22408 -1.90248 0.357247 -23.7704 -1.90981 -0.315638 -3.75779 -1.90983 -0.315636 97.9302 -45.5356 -88.9735 19.5652 -7.70837 1.14197 4.50275 -5.16466 -8.29056 -8.29311 -0.29916 -1.04114 -83.2425 -53.5224 89.2345 -16.6224 20.1284 -24.2454 7.89147 18.3353 -59.7839 -1.79348 -0.1538 -16.8431 30.0804 -1.00831 -3.22053 -19.3429 -0.50041 5.45111 
44.4883 102.536 -58.8861 109.672 57.0426 78.6601 178.461 4.56278 86.2614 -35.4829 10.0625 4.4834 51.814 -11.1432 -5.93307 21.8171 -3.6637 6.09684 173.276 22.5093 96.2835 -47.5251 -3.2649 0.885812 68.7862 -6.54437 10.0679 35.0401 -9.28012 -7.86907 -1.01064 8.17321 -90.0463 10.5305 -2.03421 0.0909251 -1.13887 -2.02822 0.180397 -23.6863 -1.96745 -0.524884 -3.67365 -1.96746 -0.524888 98.757 -42.9198 -87.8186 20.4107 -9.16397 9.57438 4.48536 -7.73767 -7.71502 -6.74336 -0.253831 -0.874841 -83.4737 -51.0578 88.6532 -8.309 31.7552 -28.8648 9.40121 7.20072 -75.3383 -3.37629 0.0217593 -16.5308 26.4379 -2.78936 -3.55156 -20.0108 -1.64568 1.79859 
53.8738 98.5875 -67.8162 113.077 60.3076 74.2504 176.732 3.43684 82.925 -30.7531 15.1638 4.2644 61.4862 0.987895 -0.683326 30.9643 0.714946 1.68636 176.065 22.5118 92.8823 -27.7439 -4.69303 0.534059 66.7716 -1.35168 13.2975 32.9737 -6.08301 -7.56653 -0.980873 8.50917 -89.8803 9.8577 -1.9007 0.385764 -1.81197 -1.88188 0.469065 -24.3581 -1.92872 -0.20352 -4.34543 -1.92872 -0.203527 99.0323 -41.658 -87.4469 19.718 -7.00945 15.8066 4.67858 -7.29746 -7.17233 -7.83361 -0.308122 -0.545937 -83.471 -48.5113 88.3939 -0.460982 34.6626 -35.3057 10.1751 -0.119275 -90.2095 -4.86229 0.184637 -16.67 27.7253 -4.65681 -3.16107 -19.1074 -3.33373 0.494888 
63.1662 91.7535 -76.6507 116.976 59.3885 66.5305 177.8 -1.07412 77.9937 -40.9194 17.5098 3.27234 65.9683 18.4992 16.1709 50.9287 9.21479 0.882636 177.068 26.4178 87.7287 -20.4988 -2.70729 -0.839922 66.1104 2.75089 11.9952 33.186 -6.44445 -7.94237 -0.957322 9.00348 -89.4868 8.87851 -1.68125 1.13313 -2.79187 -1.62975 1.20603 -25.3348 -1.94405 0.575339 -5.32211 -1.94407 0.575337 98.986 -42.4636 -87.4652 15.9945 -2.5221 15.0188 5.08309 -7.00301 -5.20242 -11.8811 -0.677163 1.35508 -83.3268 -48.4262 88.6097 -2.01364 28.8141 -33.2281 12.0803 -1.26128 -89.3288 -2.3654 -0.0993926 -18.2165 25.5598 -4.966 -3.89581 -13.7632 -3.57386 1.92169 
